PathFileType	4	(X/Y/Z)	c:/Users/goper/Files/vsCode/490R/osim_files/A05/A05_Static01.trc
DataRate	CameraRate	NumFrames	NumMarkers	Units                	OrigDataRate	OrigDataStartFrame	OrigNumFrames
250.00	250.00	4	36	mm	250.0	438	3502
                Frame#	Time	LPSIS			LASIS			LTH1			LTH2			LTH3			LTH4			LLFE			LMFE			LSH1			LSH2			LSH3			LSH4			LLMAL			LMMAL			LCAL			LMTP5			LTOE			LMTP1			RPSIS			RASIS			RTH1			RTH2			RTH3			RTH4			RLFE			RMFE			RSH1			RSH2			RSH3			RSH4			RLMAL			RMMAL			RCAL			RMTP1			RTOE			RMTP5		
		X1	Y1	Z1	X2	Y2	Z2	X3	Y3	Z3	X4	Y4	Z4	X5	Y5	Z5	X6	Y6	Z6	X7	Y7	Z7	X8	Y8	Z8	X9	Y9	Z9	X10	Y10	Z10	X11	Y11	Z11	X12	Y12	Z12	X13	Y13	Z13	X14	Y14	Z14	X15	Y15	Z15	X16	Y16	Z16	X17	Y17	Z17	X18	Y18	Z18	X19	Y19	Z19	X20	Y20	Z20	X21	Y21	Z21	X22	Y22	Z22	X23	Y23	Z23	X24	Y24	Z24	X25	Y25	Z25	X26	Y26	Z26	X27	Y27	Z27	X28	Y28	Z28	X29	Y29	Z29	X30	Y30	Z30	X31	Y31	Z31	X32	Y32	Z32	X33	Y33	Z33	X34	Y34	Z34	X35	Y35	Z35	X36	Y36	Z36

438	1.74800	0.00000	0.00000	0.00000	342.13968	967.35907	265.88715	0.00000	0.00000	0.00000	231.89482	649.02246	237.98830	276.42413	701.59436	217.67955	281.43942	658.40442	220.35603	297.78046	480.65643	241.49527	304.63953	475.83154	340.56570	257.76447	387.55225	233.08894	251.00607	340.89386	231.66100	316.18298	376.14398	241.64586	303.86856	332.57578	236.66267	255.76672	117.05792	232.95494	261.23270	119.33621	322.77979	174.49165	66.73260	289.96747	380.58884	49.51710	200.16640	434.98871	70.74215	259.01895	395.82016	63.58434	308.85590	173.31909	995.08734	483.47113	362.52008	976.30792	580.20282	324.81314	627.52008	620.11542	336.38654	587.80200	611.57837	383.94815	641.78162	603.39343	386.60507	594.95831	594.42810	310.63623	515.97327	599.07983	340.07401	501.08289	462.51721	220.51918	269.12851	578.53827	212.43977	224.96561	568.41840	280.54892	252.94087	579.35846	260.92438	208.01173	572.05939	198.76608	111.35939	544.09033	251.08070	134.59911	461.45547	152.75320	70.01886	452.60260	363.55292	59.13661	491.00357	384.14218	65.91582	550.00555	308.27438	43.18669	597.73962
439	1.75200	0.00000	0.00000	0.00000	342.11069	967.35205	265.89291	0.00000	0.00000	0.00000	231.91205	649.02405	237.98036	276.39874	701.56799	217.67389	281.45163	658.41559	220.34579	297.77347	480.63113	241.47400	304.67236	475.86801	340.58185	257.75443	387.54453	233.09456	251.00085	340.89218	231.64525	316.19421	376.17151	241.66367	303.88074	332.57153	236.65259	255.79097	117.05350	232.93150	261.28058	119.37643	322.75980	174.49883	66.75338	289.94699	380.57285	49.49372	200.17599	435.00009	70.75956	259.01944	395.83282	63.60407	308.84439	174.37708	994.95306	483.67032	362.51343	976.30359	580.17188	324.82477	627.53162	620.09082	336.41034	587.81818	611.56573	383.99164	641.80707	603.36877	386.66391	594.99066	594.40521	310.66180	515.99493	599.06531	340.09662	501.09973	462.50684	220.58885	269.17285	578.55853	212.63998	225.11360	568.51147	280.59052	252.96568	579.36292	260.98819	208.05150	572.06885	198.81590	111.37326	544.08136	251.06398	134.60338	461.47015	152.77461	69.98944	452.60522	363.60614	59.15212	490.97244	384.18420	65.93123	549.99963	308.40594	43.16283	597.77917
440	1.75600	0.00000	0.00000	0.00000	342.10309	967.33783	265.88864	0.00000	0.00000	0.00000	231.90227	649.03442	237.98561	276.40045	701.62573	217.67632	281.42380	658.40118	220.38086	297.75696	480.65799	241.48648	304.63617	475.84329	340.59616	257.75626	387.55164	233.08925	251.01476	340.89987	231.64102	316.18320	376.14420	241.65520	303.87231	332.57211	236.66466	255.77385	117.05265	232.95609	261.28592	119.36959	322.76910	0.00000	0.00000	0.00000	380.60260	49.52497	200.17065	435.03046	70.77792	259.01935	395.85144	63.63958	308.84338	173.34782	995.09351	483.47540	362.53342	976.32654	580.18506	324.86407	627.57465	620.10754	336.43408	587.86505	611.56097	384.01996	641.82867	603.35895	386.67371	595.01984	594.42316	310.68405	516.02179	599.07001	340.08044	501.09555	462.50687	220.56967	269.17514	578.52350	212.61780	225.12178	568.48480	280.58560	252.95522	579.34448	260.98111	208.03790	572.05438	198.80815	111.37279	544.06897	251.09988	134.61592	461.45950	152.74945	70.00782	452.62515	363.40292	58.91240	490.95395	384.18564	65.93629	549.98688	308.31714	43.23785	597.75073
441	1.76000	0.00000	0.00000	0.00000	342.10321	967.35156	265.86423	0.00000	0.00000	0.00000	231.87912	649.00793	238.02469	276.39401	701.62128	217.70477	281.45163	658.43500	220.35635	297.76898	480.65347	241.50069	304.64124	475.84171	340.57648	257.69199	387.50107	233.12526	251.02095	340.89783	231.64435	316.19678	376.18710	241.64992	303.87390	332.56177	236.66858	255.74944	117.04498	232.94923	261.26730	119.36434	322.76981	174.48636	66.74989	290.06564	380.59500	49.54684	200.17142	435.00421	70.77597	259.00287	395.84158	63.62620	308.83783	173.33688	995.07471	483.44934	362.53168	976.31830	580.14557	324.82471	627.55157	620.06415	336.43433	587.83270	611.55597	383.98779	641.81488	603.35675	386.66193	595.00397	594.40070	310.63791	516.00018	599.04602	340.11523	501.12759	462.49475	220.54910	269.18643	578.52435	212.59497	225.11826	568.46149	280.58182	252.95459	579.35242	260.96857	208.06104	572.05212	198.83145	111.43628	544.06128	251.08504	134.61124	461.46097	152.79117	70.02306	452.61133	363.62424	59.16223	490.98395	384.19980	65.94565	550.01208	308.28018	43.20517	597.70367
